<svg width="18" height="17" viewBox="0 0 18 17" fill="none" xmlns="http://www.w3.org/2000/svg">
<path d="M17.4501 8.5C17.4501 13.1944 13.6445 17 8.95007 17C4.25565 17 0.450073 13.1944 0.450073 8.5C0.450073 3.80558 4.25565 0 8.95007 0C13.6445 0 17.4501 3.80558 17.4501 8.5Z" fill="#009AAF"/>
<path d="M12.936 4.41608H8.41802C7.89002 4.41608 7.51802 4.51808 7.30202 4.72208C7.09802 4.92608 6.99602 5.28008 6.99602 5.78408V7.56608H11.694L11.514 9.79808H6.99602V15.0001H4.49402V4.79408C4.49402 3.84608 4.69802 3.17408 5.10602 2.77808C5.52602 2.38208 6.24002 2.18408 7.24802 2.18408H12.936V4.41608Z" fill="white"/>
</svg>
