<svg width="144" height="72" viewBox="0 0 144 72" fill="none" xmlns="http://www.w3.org/2000/svg">
<path d="M3.3335 36.4399V12.0893C3.3335 10.5568 3.73483 9.23215 4.5375 8.11527C5.34016 6.99838 6.3015 6.43994 7.4215 6.43994H13.6375V12.4399H8.5415C7.9255 12.4399 7.6175 12.4399 7.6175 12.4399C7.6175 12.4399 7.6175 12.8555 7.6175 13.6867V13.8425H13.6375V19.8036H7.6175V36.4399H3.3335Z" fill="white"/>
<path d="M19.999 36.4399C18.879 36.4399 17.9176 35.8815 17.115 34.7646C16.331 33.6477 15.939 32.3231 15.939 30.7906V13.8425H20.223V29.1932C20.223 30.0503 20.223 30.4789 20.223 30.4789C20.223 30.4789 20.531 30.4789 21.147 30.4789H27.195C27.811 30.4789 28.119 30.4789 28.119 30.4789C28.119 30.4789 28.119 30.0503 28.119 29.1932V13.8425H32.403V30.7906C32.403 32.3231 32.0016 33.6477 31.199 34.7646C30.415 35.8815 29.463 36.4399 28.343 36.4399H19.999Z" fill="white"/>
<path d="M35.3797 36.4399V19.4919C35.3797 17.9594 35.781 16.6347 36.5837 15.5179C37.3864 14.401 38.3477 13.8425 39.4677 13.8425H48.4277V19.8036H40.5877C39.9717 19.8036 39.6637 19.8036 39.6637 19.8036C39.6637 19.8036 39.6637 20.2321 39.6637 21.0893V36.4399H35.3797Z" fill="white"/>
<path d="M50.7209 36.4399V13.8425H63.1249C64.2449 13.8425 65.1969 14.401 65.9809 15.5179C66.7835 16.6347 67.1849 17.9594 67.1849 19.4919V36.4399H62.9009V21.0893C62.9009 20.2321 62.9009 19.8036 62.9009 19.8036C62.9009 19.8036 62.5929 19.8036 61.9769 19.8036H55.9289C55.3129 19.8036 55.0049 19.8036 55.0049 19.8036C55.0049 19.8036 55.0049 20.2321 55.0049 21.0893V36.4399H50.7209Z" fill="white"/>
<path d="M70.161 36.4399V13.8425H74.445V36.4399H70.161ZM70.161 12.4399V6.43994H74.445V12.4399H70.161Z" fill="white"/>
<path d="M81.2223 36.4399C80.1023 36.4399 79.1409 35.8815 78.3383 34.7646C77.5356 33.6477 77.1343 32.3231 77.1343 30.7906V7.14124H81.4183V13.8425H87.4383V19.8036H81.4183V29.1932C81.4183 30.0503 81.4183 30.4789 81.4183 30.4789C81.4183 30.4789 81.7263 30.4789 82.3423 30.4789H87.4383V36.4399H81.2223Z" fill="white"/>
<path d="M93.8271 36.4399C92.7071 36.4399 91.7458 35.8815 90.9431 34.7646C90.1591 33.6477 89.7671 32.3231 89.7671 30.7906V13.8425H94.0511V29.1932C94.0511 30.0503 94.0511 30.4789 94.0511 30.4789C94.0511 30.4789 94.3591 30.4789 94.9751 30.4789H101.023C101.639 30.4789 101.947 30.4789 101.947 30.4789C101.947 30.4789 101.947 30.0503 101.947 29.1932V13.8425H106.231V30.7906C106.231 32.3231 105.83 33.6477 105.027 34.7646C104.243 35.8815 103.291 36.4399 102.171 36.4399H93.8271Z" fill="white"/>
<path d="M109.208 36.4399V19.4919C109.208 17.9594 109.609 16.6347 110.412 15.5179C111.215 14.401 112.176 13.8425 113.296 13.8425H122.256V19.8036H114.416C113.8 19.8036 113.492 19.8036 113.492 19.8036C113.492 19.8036 113.492 20.2321 113.492 21.0893V36.4399H109.208Z" fill="white"/>
<path d="M128.252 36.4399C127.15 36.4399 126.198 35.8815 125.396 34.7646C124.593 33.6477 124.192 32.3231 124.192 30.7906V19.4919C124.192 17.9594 124.593 16.6347 125.396 15.5179C126.198 14.401 127.15 13.8425 128.252 13.8425H136.596C137.716 13.8425 138.668 14.401 139.452 15.5179C140.254 16.6347 140.656 17.9594 140.656 19.4919V28.1412H128.476V29.1932C128.476 30.0503 128.476 30.4789 128.476 30.4789C128.476 30.4789 128.784 30.4789 129.4 30.4789H140.656V36.4399H128.252ZM128.476 22.9205H136.372V21.0893C136.372 20.2321 136.372 19.8036 136.372 19.8036C136.372 19.8036 136.064 19.8036 135.448 19.8036H129.4C128.784 19.8036 128.476 19.8036 128.476 19.8036C128.476 19.8036 128.476 20.2321 128.476 21.0893V22.9205Z" fill="white"/>
<path d="M25 59.3677H26.9419L28.9105 67.0501H28.9641L30.7988 59.3677H32.6737V68.805H31.5622V60.9666H31.4952L29.4998 68.805H28.2811L26.2053 60.9666H26.1383V68.805H25V59.3677Z" fill="white"/>
<path d="M36.8416 69C36.2255 69 35.7479 68.9155 35.4086 68.7465C35.0782 68.5775 34.8372 68.2786 34.6854 67.8496C34.5426 67.4206 34.4711 66.8032 34.4711 65.9972C34.4711 65.2823 34.5381 64.7298 34.672 64.3398C34.8149 63.9369 35.0515 63.6509 35.3818 63.4819C35.7211 63.3129 36.1987 63.2284 36.8148 63.2284H38.7566V61.727C38.7566 61.376 38.7075 61.1096 38.6093 60.9276C38.5201 60.7326 38.3638 60.5961 38.1406 60.5181C37.9263 60.4401 37.6094 60.4011 37.1898 60.4011C36.5201 60.4011 35.7791 60.4791 34.9666 60.6351V59.3482C35.8505 59.2312 36.6496 59.1727 37.3639 59.1727C38.1138 59.1727 38.6674 59.2572 39.0245 59.4262C39.3816 59.5822 39.6271 59.8617 39.7611 60.2646C39.895 60.6676 39.9619 61.2916 39.9619 62.1365V68.805H38.7968V67.9081C38.6986 68.636 38.0469 69 36.8416 69ZM37.0424 67.8496C37.4799 67.8496 37.8504 67.8041 38.154 67.7131C38.5558 67.5961 38.7566 67.3231 38.7566 66.8942V64.3203H36.8951C36.5112 64.3203 36.2344 64.3658 36.0648 64.4568C35.8952 64.5348 35.7836 64.6908 35.73 64.9248C35.6764 65.1588 35.6496 65.5357 35.6496 66.0557C35.6496 66.5237 35.6809 66.8877 35.7434 67.1476C35.8059 67.3946 35.9175 67.5766 36.0782 67.6936C36.2389 67.7976 36.48 67.8496 36.8014 67.8496H37.0424Z" fill="white"/>
<path d="M42.1326 59.3677H46.3646V60.6546H43.3379V68.805H42.1326V59.3677Z" fill="white"/>
<path d="M49.6714 69C49.0554 69 48.5777 68.9155 48.2384 68.7465C47.9081 68.5775 47.667 68.2786 47.5153 67.8496C47.3724 67.4206 47.301 66.8032 47.301 65.9972C47.301 65.2823 47.368 64.7298 47.5019 64.3398C47.6447 63.9369 47.8813 63.6509 48.2117 63.4819C48.5509 63.3129 49.0286 63.2284 49.6446 63.2284H51.5865V61.727C51.5865 61.376 51.5374 61.1096 51.4392 60.9276C51.3499 60.7326 51.1937 60.5961 50.9705 60.5181C50.7562 60.4401 50.4392 60.4011 50.0196 60.4011C49.35 60.4011 48.609 60.4791 47.7965 60.6351V59.3482C48.6804 59.2312 49.4795 59.1727 50.1937 59.1727C50.9437 59.1727 51.4972 59.2572 51.8544 59.4262C52.2115 59.5822 52.457 59.8617 52.5909 60.2646C52.7248 60.6676 52.7918 61.2916 52.7918 62.1365V68.805H51.6267V67.9081C51.5285 68.636 50.8767 69 49.6714 69ZM49.8723 67.8496C50.3098 67.8496 50.6803 67.8041 50.9839 67.7131C51.3856 67.5961 51.5865 67.3231 51.5865 66.8942V64.3203H49.725C49.3411 64.3203 49.0643 64.3658 48.8947 64.4568C48.725 64.5348 48.6134 64.6908 48.5599 64.9248C48.5063 65.1588 48.4795 65.5357 48.4795 66.0557C48.4795 66.5237 48.5108 66.8877 48.5733 67.1476C48.6358 67.3946 48.7474 67.5766 48.9081 67.6936C49.0688 67.7976 49.3098 67.8496 49.6312 67.8496H49.8723Z" fill="white"/>
<path d="M56.3285 69C55.8017 69 55.1946 68.8895 54.5072 68.6685V67.2841C55.1768 67.5701 55.7839 67.7131 56.3285 67.7131C56.9446 67.7131 57.3954 67.6156 57.6811 67.4206C57.9668 67.2126 58.1097 66.8227 58.1097 66.2507V65.6462C58.1097 65.1653 57.9624 64.8468 57.6677 64.6908C57.382 64.5218 56.9758 64.4373 56.449 64.4373H55.7125V63.2284H56.2214C56.766 63.2284 57.1811 63.1374 57.4668 62.9554C57.7525 62.7734 57.8954 62.4485 57.8954 61.9805V61.3955C57.8954 60.7196 57.3597 60.3816 56.2883 60.3816C55.7259 60.3816 55.1768 60.4596 54.6411 60.6156V59.3482C55.15 59.2312 55.6946 59.1727 56.2749 59.1727C56.9624 59.1727 57.4981 59.2247 57.882 59.3287C58.2659 59.4327 58.565 59.6277 58.7793 59.9136C59.0025 60.1996 59.1141 60.6611 59.1141 61.298V62.0585C59.1141 62.4745 59.007 62.8189 58.7927 63.0919C58.5873 63.3519 58.3195 63.5209 57.9891 63.5989V63.6769C58.9087 63.8849 59.3685 64.4633 59.3685 65.4123V66.3872C59.3685 66.8292 59.306 67.2256 59.1811 67.5766C59.065 67.9146 58.9087 68.1746 58.7123 68.3565C58.4445 68.6035 58.1052 68.7725 57.6945 68.8635C57.2927 68.9545 56.8374 69 56.3285 69Z" fill="white"/>
<path d="M66.9975 59.3677V68.805H65.7922V61.844L62.4174 68.805H61.2121V59.3677H62.4174V66.5627L65.8592 59.3677H66.9975Z" fill="white"/>
<path d="M69.0852 59.3677H70.2905V63.2869H73.4779V59.3677H74.6832V68.805H73.4779V64.5738H70.2905V68.805H69.0852V59.3677Z" fill="white"/>
<path d="M79.9422 59.3677H81.884L83.8527 67.0501H83.9063L85.741 59.3677H87.6159V68.805H86.5043V60.9666H86.4374L84.4419 68.805H83.2232L81.1475 60.9666H81.0805V68.805H79.9422V59.3677Z" fill="white"/>
<path d="M92.5203 69C90.5382 69 89.5472 68.0381 89.5472 66.1142V62.39C89.5472 61.2461 89.7704 60.4271 90.2168 59.9331C90.6722 59.4262 91.4043 59.1727 92.4131 59.1727C93.3685 59.1727 94.0559 59.4132 94.4755 59.8942C94.9041 60.3751 95.1184 61.2071 95.1184 62.39V64.4763H90.7659V65.8997C90.7659 66.5497 90.9221 67.0176 91.2346 67.3036C91.5471 67.5896 92.0292 67.7326 92.681 67.7326C93.297 67.7326 94.0247 67.5766 94.8639 67.2646V68.61C94.0425 68.87 93.2613 69 92.5203 69ZM93.9131 63.3259V61.844C93.9131 61.2721 93.7925 60.8821 93.5515 60.6741C93.3193 60.4531 92.9176 60.3426 92.3462 60.3426C91.7926 60.3426 91.3909 60.4531 91.1409 60.6741C90.8909 60.8821 90.7659 61.2721 90.7659 61.844V63.3259H93.9131Z" fill="white"/>
<path d="M99.781 69C98.9774 69 98.3703 68.8895 97.9596 68.6685C97.5489 68.4475 97.2632 68.0641 97.1025 67.5181C96.9418 66.9591 96.8615 66.1402 96.8615 65.0613V61.2591C96.8615 59.8812 97.1382 58.7697 97.6918 57.9248C98.2542 57.0669 99.1247 56.4234 100.303 55.9944C101.259 55.6045 101.977 55.273 102.459 55V56.6574C101.772 57.0214 100.942 57.3918 99.9685 57.7688C99.4238 57.9248 98.9997 58.1133 98.6962 58.3343C98.3926 58.5552 98.1784 58.8217 98.0534 59.1337C97.9373 59.4327 97.8837 59.8097 97.8927 60.2646V61.493C98.098 60.9211 98.3926 60.5246 98.7765 60.3036C99.1605 60.0696 99.656 59.9526 100.263 59.9526C101.111 59.9526 101.732 60.2061 102.125 60.7131C102.526 61.2071 102.727 61.9545 102.727 62.9554V65.7632C102.727 66.6082 102.62 67.2646 102.406 67.7326C102.192 68.2006 101.87 68.532 101.442 68.727C101.022 68.909 100.468 69 99.781 69ZM99.8077 67.8496C100.281 67.8496 100.634 67.8041 100.866 67.7131C101.107 67.6091 101.276 67.4206 101.375 67.1476C101.482 66.8617 101.535 66.4327 101.535 65.8607V62.9749C101.535 62.533 101.491 62.195 101.401 61.961C101.312 61.714 101.156 61.5385 100.933 61.4345C100.709 61.3305 100.393 61.2786 99.9818 61.2786C99.3479 61.2786 98.8614 61.4085 98.5221 61.6685C98.1828 61.9285 98.0177 62.3055 98.0266 62.7994L98.0534 65.8607C98.0623 66.4327 98.1159 66.8617 98.2141 67.1476C98.3212 67.4206 98.4953 67.6091 98.7364 67.7131C98.9774 67.8041 99.3346 67.8496 99.8077 67.8496Z" fill="white"/>
<path d="M107.299 69C105.317 69 104.326 68.0381 104.326 66.1142V62.39C104.326 61.2461 104.549 60.4271 104.995 59.9331C105.451 59.4262 106.183 59.1727 107.192 59.1727C108.147 59.1727 108.834 59.4132 109.254 59.8942C109.683 60.3751 109.897 61.2071 109.897 62.39V64.4763H105.544V65.8997C105.544 66.5497 105.701 67.0176 106.013 67.3036C106.326 67.5896 106.808 67.7326 107.46 67.7326C108.076 67.7326 108.803 67.5766 109.642 67.2646V68.61C108.821 68.87 108.04 69 107.299 69ZM108.692 63.3259V61.844C108.692 61.2721 108.571 60.8821 108.33 60.6741C108.098 60.4531 107.696 60.3426 107.125 60.3426C106.571 60.3426 106.169 60.4531 105.919 60.6741C105.669 60.8821 105.544 61.2721 105.544 61.844V63.3259H108.692Z" fill="white"/>
<path d="M111.479 68.8245C111.345 68.8245 111.216 68.805 111.091 68.766V67.2646C111.216 67.3036 111.341 67.3231 111.466 67.3231C111.85 67.3231 112.153 66.9201 112.377 66.1142C112.609 65.2953 112.725 63.7874 112.725 61.5905V59.3677H117.131V68.805H115.926V60.5181H113.796V61.883C113.796 64.0279 113.622 65.7242 113.274 66.9721C112.926 68.2071 112.327 68.8245 111.479 68.8245Z" fill="white"/>
<path d="M125 59.3677V68.805H123.795V61.844L120.42 68.805H119.215V59.3677H120.42V66.5627L123.862 59.3677H125Z" fill="white"/>
</svg>
